<svg xmlns="http://www.w3.org/2000/svg" width="160" height="141" viewBox="0 0 160 141">
  <g fill="#FFFFFF" fill-rule="evenodd">
    <path d="M0 41L20 21 60 21 80 41 80 101 60 121 20 121 0 101 0 81 20 61 57 61 57 81 20 81 9 81 20 86 20 101 56 101 60 115 60 101 60 41 60 28 56 41 0 41zM100 21L100 141 120 121 120 21 120 11 125 21 140 21 160.024984.975015605 119.999992.975015605 100 21z"/>
    <path d="M123,61 L123,81 L140,81 C140,81 160,60.5082284 160,61 L123,61 Z"/>
    <polygon points="83 61 83 81 97 81 97 61"/>
  </g>
</svg>
